<?xml version="1.0" encoding="utf-8"?>
<!-- Generator: Adobe Illustrator 15.0.0, SVG Export Plug-In . SVG Version: 6.00 Build 0)  -->
<!DOCTYPE svg PUBLIC "-//W3C//DTD SVG 1.1//EN" "http://www.w3.org/Graphics/SVG/1.1/DTD/svg11.dtd">
<svg version="1.1" id="Calque_1" xmlns="http://www.w3.org/2000/svg" xmlns:xlink="http://www.w3.org/1999/xlink" x="0px" y="0px"
	 width="595.279px" height="841.89px" viewBox="0 0 595.279 841.89" enable-background="new 0 0 595.279 841.89"
	 xml:space="preserve">
<g>
	<g>
		<path fill="#FFFFFF" d="M109.531,184.023c-72.029,72.029-72.029,189.299,0,261.328c66.672,66.076,170.846,71.434,243.47,15.479
			l32.74,32.74l1.19,11.311l86.315,85.719c8.93,8.93,29.169,2.383,38.693-5.357c0.596-0.594,1.19-1.189,1.786-1.189v-0.596l0,0
			l6.548-5.953c8.334-8.334,16.668-29.764,7.144-39.883l-84.53-85.721l-0.595-1.191l-11.906-1.785l-35.121-35.122
			c45.837-71.434,37.503-167.869-25.002-230.374C298.236,111.995,181.561,111.995,109.531,184.023z M328.594,225.693
			c48.813,48.813,48.813,128.58,0,177.394c-48.813,48.813-128.58,48.813-177.393,0c-48.813-48.813-48.813-127.985,0-177.394
			C200.014,176.88,279.781,176.88,328.594,225.693z"/>
		<path fill="#FFFFFF" stroke="#FFFFFF" stroke-width="0.75" stroke-miterlimit="10" d="M305.378,307.247l1.19,7.739l23.217-3.572
			l-1.191-7.739c-8.333-51.789-57.146-86.911-108.936-78.577l-7.738,1.191l3.571,23.216l7.738-1.19
			C262.519,241.766,299.426,268.553,305.378,307.247z"/>
	</g>
</g>
</svg>
