<?xml version="1.0" encoding="utf-8"?>
<!-- Generator: Adobe Illustrator 15.0.0, SVG Export Plug-In . SVG Version: 6.00 Build 0)  -->
<!DOCTYPE svg PUBLIC "-//W3C//DTD SVG 1.1//EN" "http://www.w3.org/Graphics/SVG/1.1/DTD/svg11.dtd">
<svg version="1.1" id="Calque_1_-_copie" xmlns="http://www.w3.org/2000/svg" xmlns:xlink="http://www.w3.org/1999/xlink" x="0px"
	 y="0px" width="520px" height="624px" viewBox="0 0 520 624" enable-background="new 0 0 520 624" xml:space="preserve">
<circle fill="#DC2D3D" cx="267.205" cy="263.795" r="195.795"/>
<g>
	<title>essential user interface ui place holder location</title>
	<g>
		<path fill="#DC2D3D" d="M251.478,589.354c6.614,4.961,15.708,4.961,22.323,0c8.743-6.511,212.069-161.098,212.069-331.125
			C485.87,134.943,385.926,35,262.64,35C139.353,35,39.41,134.943,39.41,258.229C39.41,428.257,242.735,582.844,251.478,589.354z"/>
	</g>
</g>
<g>
	<g>
		
			<polygon fill="#FFFFFF" stroke="#FFFFFF" stroke-width="2" stroke-linecap="round" stroke-linejoin="round" stroke-miterlimit="10" points="
			311.869,120.008 311.869,159.236 285.548,159.236 285.548,120.008 246.378,120.008 246.378,159.236 213.359,159.236 
			213.359,120.008 174.183,120.008 174.183,159.236 174.183,198.409 351.095,198.409 351.095,159.236 351.095,120.008 		"/>
		
			<path fill="#FFFFFF" stroke="#FFFFFF" stroke-width="2" stroke-linecap="round" stroke-linejoin="round" stroke-miterlimit="10" d="
			M354.447,405.582l-25.825-197.897H196.654l-25.821,197.897h65.491v-63.071c0-14.562,11.758-26.317,26.317-26.317
			c14.506,0,26.263,11.756,26.263,26.317v63.071H354.447z"/>
	</g>
</g>
<circle fill="none" stroke="#FFFFFF" stroke-width="16" stroke-miterlimit="10" cx="262.639" cy="263.794" r="195.795"/>
</svg>
