<?xml version="1.0" encoding="utf-8"?>
<!-- Generator: Adobe Illustrator 15.0.0, SVG Export Plug-In . SVG Version: 6.00 Build 0)  -->
<!DOCTYPE svg PUBLIC "-//W3C//DTD SVG 1.1//EN" "http://www.w3.org/Graphics/SVG/1.1/DTD/svg11.dtd">
<svg version="1.1" xmlns="http://www.w3.org/2000/svg" xmlns:xlink="http://www.w3.org/1999/xlink" x="0px" y="0px" width="520px"
	 height="624px" viewBox="0 0 520 624" enable-background="new 0 0 520 624" xml:space="preserve">
<g id="Calque_2" display="none">
	<rect x="-46" y="-24" display="inline" fill="#DC2D3D" width="610" height="702"/>
</g>
<g id="Calque_1" display="none">
	<circle display="inline" fill="#DC2D3D" cx="267.205" cy="263.795" r="195.795"/>
	<g display="inline">
		<title>essential user interface ui place holder location</title>
		<g>
			<path fill="#DC2D3D" d="M251.478,589.354c6.614,4.961,15.708,4.961,22.323,0c8.743-6.511,212.069-161.098,212.069-331.125
				C485.87,134.943,385.926,35,262.64,35C139.353,35,39.41,134.943,39.41,258.229C39.41,428.257,242.735,582.844,251.478,589.354z
				 M132.422,258.229c0-71.917,58.301-130.218,130.218-130.218s130.218,58.301,130.218,130.218S334.557,388.447,262.64,388.447
				S132.422,330.146,132.422,258.229z"/>
		</g>
	</g>
	<g display="inline">
		<g>
			
				<polygon fill="#FFFFFF" stroke="#FFFFFF" stroke-width="2" stroke-linecap="round" stroke-linejoin="round" stroke-miterlimit="10" points="
				311.869,120.008 311.869,159.236 285.548,159.236 285.548,120.008 246.378,120.008 246.378,159.236 213.359,159.236 
				213.359,120.008 174.183,120.008 174.183,159.236 174.183,198.409 351.095,198.409 351.095,159.236 351.095,120.008 			"/>
			
				<path fill="#FFFFFF" stroke="#FFFFFF" stroke-width="2" stroke-linecap="round" stroke-linejoin="round" stroke-miterlimit="10" d="
				M354.447,405.582l-25.825-197.897H196.654l-25.821,197.897h65.491v-63.071c0-14.562,11.758-26.317,26.317-26.317
				c14.506,0,26.263,11.756,26.263,26.317v63.071H354.447z"/>
		</g>
	</g>
	
		<circle display="inline" fill="none" stroke="#FFFFFF" stroke-width="7" stroke-miterlimit="10" cx="262.639" cy="263.794" r="195.795"/>
</g>
<g id="Calque_1_-_copie">
	<circle fill="#DC2D3D" cx="267.205" cy="263.795" r="195.795"/>
	<g>
		<title>essential user interface ui place holder location</title>
		<g>
			<g>
				<path fill="#DC2D3D" d="M262.639,601.075c-5.801,0-11.32-1.84-15.961-5.32c-2.274-1.694-56.833-42.586-110.592-105.444
					c-30.39-35.535-54.591-71.184-71.929-105.958c-21.729-43.58-32.747-86.014-32.747-126.123
					c0-61.764,24.052-119.831,67.726-163.504C142.809,51.052,200.876,27,262.64,27s119.83,24.052,163.504,67.726
					s67.727,101.74,67.727,163.504c0,40.109-11.018,82.542-32.747,126.123c-17.339,34.774-41.539,70.423-71.929,105.958
					c-53.759,62.858-108.319,103.75-110.615,105.46C273.96,599.235,268.44,601.075,262.639,601.075z"/>
				<path fill="#FFFFFF" d="M262.64,35c123.286,0,223.23,99.943,223.23,223.229c0,170.027-203.326,324.614-212.069,331.125
					c-3.307,2.48-7.234,3.721-11.161,3.721c-3.927,0-7.854-1.24-11.162-3.721C242.735,582.844,39.41,428.257,39.41,258.229
					C39.41,134.943,139.353,35,262.64,35 M262.64,19c-32.289,0-63.62,6.328-93.124,18.807
					c-28.489,12.05-54.072,29.297-76.037,51.262s-39.212,47.548-51.262,76.037c-12.479,29.504-18.807,60.835-18.807,93.124
					c0,41.359,11.3,84.994,33.587,129.692c17.63,35.359,42.193,71.557,73.008,107.588
					c54.156,63.323,109.227,104.673,111.892,106.659c6.033,4.519,13.205,6.906,20.743,6.906c7.527,0,14.69-2.382,20.718-6.888l0,0
					c2.325-1.732,57.582-43.146,111.916-106.678c30.815-36.031,55.379-72.229,73.009-107.588
					c22.287-44.699,33.588-88.333,33.588-129.692c0-32.289-6.327-63.62-18.807-93.124c-12.05-28.489-29.297-54.071-51.263-76.037
					c-21.965-21.965-47.548-39.212-76.037-51.262C326.26,25.328,294.929,19,262.64,19L262.64,19z"/>
			</g>
		</g>
	</g>
	<g>
		<g>
			
				<polygon fill="#FFFFFF" stroke="#FFFFFF" stroke-width="2" stroke-linecap="round" stroke-linejoin="round" stroke-miterlimit="10" points="
				311.869,120.008 311.869,159.236 285.548,159.236 285.548,120.008 246.378,120.008 246.378,159.236 213.359,159.236 
				213.359,120.008 174.183,120.008 174.183,159.236 174.183,198.409 351.095,198.409 351.095,159.236 351.095,120.008 			"/>
			
				<path fill="#FFFFFF" stroke="#FFFFFF" stroke-width="2" stroke-linecap="round" stroke-linejoin="round" stroke-miterlimit="10" d="
				M354.447,405.582l-25.825-197.897H196.654l-25.821,197.897h65.491v-63.071c0-14.562,11.758-26.317,26.317-26.317
				c14.506,0,26.263,11.756,26.263,26.317v63.071H354.447z"/>
		</g>
	</g>
	<circle fill="none" stroke="#FFFFFF" stroke-width="16" stroke-miterlimit="10" cx="262.639" cy="263.794" r="195.795"/>
</g>
</svg>
